<?xml version="1.0" standalone="no"?>
<!DOCTYPE svg PUBLIC "-//W3C//DTD SVG 20010904//EN"
 "http://www.w3.org/TR/2001/REC-SVG-20010904/DTD/svg10.dtd">
<svg version="1.0" xmlns="http://www.w3.org/2000/svg"
 width="500.000000pt" height="500.000000pt" viewBox="0 0 500.000000 500.000000"
 preserveAspectRatio="xMidYMid meet">
<metadata>
Created by potrace 1.14, written by Peter Selinger 2001-2017
</metadata>
<g transform="translate(0.000000,500.000000) scale(0.100000,-0.100000)"
fill="#000000" stroke="none">
<path d="M2505 3155 c0 -253 1 -355 2 -227 2 128 2 335 0 460 -1 125 -2 20 -2
-233z"/>
<path d="M1618 3184 c-121 -29 -221 -102 -260 -190 -38 -87 -18 -226 39 -277
17 -15 35 -17 103 -15 l82 3 -54 35 c-86 57 -118 122 -104 215 14 90 110 185
221 217 69 20 212 15 276 -10 67 -27 132 -80 171 -141 l28 -45 0 86 0 85 -57
16 c-140 39 -335 48 -445 21z"/>
<path d="M2676 3171 c5 -5 18 -11 28 -13 27 -5 57 -49 67 -99 4 -24 9 -116 11
-204 l2 -160 6 205 5 204 134 -202 134 -202 64 0 65 0 -23 38 c-13 20 -83 128
-156 240 l-133 202 -107 0 c-64 0 -103 -4 -97 -9z"/>
<path d="M3375 3170 c3 -5 13 -10 20 -10 22 0 84 -59 105 -99 29 -58 50 -143
65 -259 l13 -107 1 145 c2 221 23 309 77 318 10 2 23 8 29 13 5 5 -57 9 -154
9 -105 0 -160 -3 -156 -10z"/>
<path d="M1152 2599 c-36 -14 -26 -51 18 -65 23 -8 35 -18 35 -30 0 -15 -7
-19 -37 -18 -21 1 -35 -3 -32 -7 6 -10 45 -12 68 -3 9 3 16 16 16 29 0 17 -10
26 -41 38 -50 20 -47 40 7 48 21 3 34 7 27 8 -6 0 -17 3 -25 5 -7 3 -23 1 -36
-5z"/>
<path d="M2993 2600 c-46 -18 -56 -74 -20 -108 46 -43 117 -14 117 46 0 46
-52 80 -97 62z m72 -30 c22 -24 14 -65 -16 -81 -52 -27 -106 29 -74 77 19 30
65 32 90 4z"/>
<path d="M1327 2538 c-26 -59 -31 -92 -7 -49 8 15 20 21 45 21 25 0 37 -6 45
-21 7 -11 14 -19 16 -16 8 7 -50 126 -62 127 -6 0 -23 -28 -37 -62z m63 -5 c0
-8 -12 -13 -30 -13 l-30 0 17 35 c17 35 17 35 30 13 7 -13 12 -29 13 -35z"/>
<path d="M1521 2533 c1 -38 4 -58 6 -45 3 16 11 22 29 22 38 0 64 18 64 43 0
33 -19 47 -62 47 l-38 0 1 -67z m87 30 c3 -17 -4 -26 -24 -33 -38 -15 -54 -6
-54 30 0 30 2 31 38 28 30 -2 38 -7 40 -25z"/>
<path d="M1723 2535 c0 -38 2 -53 4 -32 2 20 2 52 0 70 -2 17 -4 1 -4 -38z"/>
<path d="M1842 2593 c26 -4 27 -8 31 -66 l3 -62 2 62 c2 55 4 62 25 66 12 2
-3 4 -33 4 -30 0 -43 -2 -28 -4z"/>
<path d="M2034 2563 c-9 -21 -23 -50 -30 -65 -8 -16 -10 -28 -5 -28 5 0 13 9
16 20 5 15 15 20 45 20 30 0 40 -5 45 -20 3 -11 10 -20 15 -20 12 0 -47 124
-60 128 -6 2 -17 -14 -26 -35z m45 -13 c10 -29 9 -30 -20 -30 -33 0 -33 0 -17
35 15 33 24 32 37 -5z"/>
<path d="M2332 2535 l1 -70 6 55 6 55 40 -52 c21 -29 43 -53 47 -53 4 0 8 29
8 65 0 37 -4 65 -10 65 -5 0 -10 -21 -10 -47 l0 -48 -45 50 -44 50 1 -70z"/>
<path d="M2761 2533 c1 -37 4 -58 6 -45 6 30 53 31 71 1 7 -12 16 -18 19 -15
3 3 0 12 -7 21 -10 12 -10 18 -1 29 7 8 11 27 9 43 -3 26 -7 28 -50 31 l-48 3
1 -68z m87 30 c3 -17 -4 -26 -24 -33 -38 -15 -54 -6 -54 30 0 30 2 31 38 28
30 -2 38 -7 40 -25z"/>
<path d="M3190 2536 l0 -66 44 0 c49 0 73 19 60 47 -4 10 -8 32 -8 48 -1 29
-3 30 -48 33 l-48 3 0 -65z m85 44 c11 -18 -15 -40 -46 -40 -24 0 -29 4 -29
25 0 22 4 25 34 25 19 0 38 -5 41 -10z m8 -64 c8 -21 -13 -36 -50 -36 -29 0
-33 3 -33 25 0 22 4 25 39 25 24 0 41 -5 44 -14z"/>
<path d="M3400 2535 l0 -65 48 2 47 1 -42 4 c-38 4 -43 7 -43 28 0 20 6 24 38
28 l37 4 -37 1 c-33 2 -38 5 -38 26 0 21 5 25 38 29 l37 4 -42 1 -43 2 0 -65z"/>
<path d="M3591 2533 c1 -38 4 -58 6 -45 6 29 48 30 65 2 7 -11 16 -20 21 -20
4 0 1 11 -8 24 -14 21 -14 25 0 36 36 30 10 70 -47 70 l-38 0 1 -67z m78 43
c15 -18 5 -43 -22 -50 -41 -11 -47 -7 -47 29 0 32 3 35 29 35 16 0 34 -6 40
-14z"/>
<path d="M3788 2593 c20 -4 22 -10 22 -64 0 -33 4 -59 10 -59 6 0 10 26 10 59
0 54 2 60 23 64 12 2 -3 4 -33 4 -30 0 -45 -2 -32 -4z"/>
<path d="M1590 2501 c0 -5 7 -15 17 -22 15 -13 15 -12 4 9 -12 23 -21 28 -21
13z"/>
<path d="M2096 2321 c36 -68 35 -143 -2 -212 -32 -58 -65 -89 -138 -127 -46
-24 -61 -27 -157 -27 -104 0 -107 1 -190 42 -66 33 -99 58 -154 115 -39 40
-80 87 -92 103 l-22 30 0 -86 -1 -87 48 -30 c152 -98 325 -134 484 -101 123
26 250 114 293 204 21 44 31 135 21 190 -7 35 -7 35 -61 35 l-54 0 25 -49z"/>
<path d="M2499 1965 c-3 -225 -4 -412 -2 -414 11 -16 13 50 11 415 l-3 409 -6
-410z"/>
<path d="M2778 2214 c-5 -186 -16 -223 -76 -248 -35 -14 -29 -15 133 -15 143
0 165 2 137 12 -46 17 -92 64 -119 124 -26 56 -52 168 -53 223 0 19 -4 41 -9
49 -5 8 -10 -51 -13 -145z"/>
<path d="M3297 2342 c196 -302 269 -411 276 -412 4 0 6 100 5 223 -2 183 -3
201 -8 103 l-5 -119 -78 116 -77 117 -66 0 -66 0 19 -28z"/>
</g>
</svg>
